<svg width="342" height="44" viewBox="0 0 342 44" fill="none" xmlns="http://www.w3.org/2000/svg">
<g filter="url(#filter0_dd_18_1103)">
<rect x="2" y="1" width="338" height="40" rx="6" fill="url(#paint0_linear_18_1103)"/>
<rect x="2.5" y="1.5" width="337" height="39" rx="5.5" stroke="url(#paint1_linear_18_1103)" stroke-opacity="0.2"/>
<path fill-rule="evenodd" clip-rule="evenodd" d="M90.5951 9.60754C90.2613 9.29146 89.7387 9.29146 89.4049 9.60754C87.0779 11.8113 83.938 13.1617 80.4808 13.1617C80.4258 13.1617 80.3708 13.1614 80.316 13.1607C79.9383 13.156 79.6012 13.3969 79.4832 13.7557C79.0072 15.2035 78.75 16.7497 78.75 18.3541C78.75 25.2103 83.4393 30.969 89.7843 32.6021C89.9258 32.6385 90.0742 32.6385 90.2157 32.6021C96.5607 30.969 101.25 25.2103 101.25 18.3541C101.25 16.7497 100.993 15.2035 100.517 13.7557C100.399 13.3969 100.062 13.156 99.684 13.1607C99.6292 13.1614 99.5742 13.1617 99.5192 13.1617C96.062 13.1617 92.9221 11.8113 90.5951 9.60754Z" fill="white"/>
<path fill-rule="evenodd" clip-rule="evenodd" d="M89.3819 20.5367C88.257 20.2598 87.4227 19.2443 87.4227 18.034C87.4227 16.6106 88.5765 15.4567 89.9999 15.4567C91.4233 15.4567 92.5772 16.6106 92.5772 18.034C92.5772 19.2443 91.7429 20.2598 90.618 20.5367L91.4318 26.5431H88.5681L89.3819 20.5367ZM91.8267 21.231C92.9347 20.5967 93.6818 19.4034 93.6818 18.034C93.6818 16.0006 92.0333 14.3522 89.9999 14.3522C87.9665 14.3522 86.3181 16.0006 86.3181 18.034C86.3181 19.4034 87.0651 20.5967 88.1732 21.231L87.3038 27.6476H92.696L91.8267 21.231Z" fill="#006341"/>
<path fill-rule="evenodd" clip-rule="evenodd" d="M89.382 20.5368C88.2571 20.2599 87.4227 19.2444 87.4227 18.0341C87.4227 16.6107 88.5766 15.4568 90 15.4568C91.4234 15.4568 92.5773 16.6107 92.5773 18.0341C92.5773 19.2444 91.743 20.2599 90.6181 20.5368L91.4318 26.5432H88.5682L89.382 20.5368ZM91.3828 21.001C92.4989 20.4799 93.2727 19.348 93.2727 18.0341C93.2727 16.2266 91.8075 14.7614 90 14.7614C88.1925 14.7614 86.7273 16.2266 86.7273 18.0341C86.7273 19.348 87.5011 20.4799 88.6173 21.001L87.7722 27.2386H92.2279L91.3828 21.001Z" fill="white"/>
<path d="M90.6182 20.5368C91.7431 20.2599 92.5774 19.2444 92.5774 18.0341C92.5774 16.6107 91.4235 15.4568 90.0001 15.4568C88.5767 15.4568 87.4229 16.6107 87.4229 18.0341C87.4229 19.2444 88.2572 20.2599 89.3821 20.5368L88.5683 26.5431H91.4319L90.6182 20.5368Z" fill="#006341"/>
<path d="M89.8366 11.1648C89.8366 11.1178 89.8572 11.0731 89.8927 11.0423C89.9543 10.9889 90.046 10.989 90.1075 11.0424C90.1432 11.0733 90.1639 11.1181 90.1639 11.1653V13.496C90.1639 13.5855 90.0895 13.6568 90 13.6568C89.9107 13.6568 89.8366 13.5856 89.8366 13.4963V11.1648Z" fill="#006341"/>
<path d="M88.027 14.1257C88.095 14.0912 88.1313 14.0142 88.1115 13.9405L87.8026 12.7877C87.775 12.6846 87.6568 12.6361 87.5639 12.6888C87.4994 12.7254 87.4673 12.8008 87.4865 12.8724L87.7954 14.0252C87.822 14.1246 87.9351 14.1721 88.027 14.1257Z" fill="#006341"/>
<path d="M86.5937 15.2848C86.6353 15.2333 86.642 15.1615 86.6089 15.1041L85.791 13.6875C85.7511 13.6183 85.6666 13.5887 85.5918 13.6172C85.4979 13.6529 85.4574 13.7642 85.5076 13.8512L86.3254 15.2676C86.3823 15.3661 86.5222 15.3733 86.5937 15.2848Z" fill="#006341"/>
<path d="M85.7815 16.8619C85.7968 16.8068 85.7819 16.7478 85.7415 16.7073L83.3695 14.3353C83.3314 14.2973 83.2771 14.2808 83.2243 14.2911C83.0961 14.3158 83.0457 14.4745 83.1381 14.5668L85.5099 16.9386C85.5973 17.0261 85.7484 16.9811 85.7815 16.8619Z" fill="#006341"/>
<path d="M85.649 18.5159C85.6435 18.4662 85.6152 18.421 85.5718 18.396L80.6553 15.5575C80.5583 15.5015 80.4348 15.5556 80.4123 15.6653C80.3981 15.7348 80.4303 15.8054 80.4917 15.8409L85.4078 18.6792C85.5218 18.7451 85.6633 18.6468 85.649 18.5159Z" fill="#006341"/>
<path d="M86.057 19.9371C86.0373 19.8964 86.0012 19.8657 85.9575 19.854L80.3488 18.3511C80.2438 18.323 80.1406 18.402 80.1419 18.5107C80.1427 18.5845 80.1929 18.6482 80.2641 18.6672L85.8723 20.17C86.0044 20.2054 86.1166 20.0602 86.057 19.9371Z" fill="#006341"/>
<path d="M86.7533 20.9696C86.7239 20.9372 86.6823 20.9182 86.6385 20.9182H80.5887C80.4844 20.9182 80.406 21.0135 80.4276 21.1155C80.4436 21.1916 80.511 21.2454 80.5887 21.2454H86.6379C86.7762 21.2454 86.8461 21.0722 86.7533 20.9696Z" fill="#006341"/>
<path d="M87.3907 21.8274C87.4064 21.7116 87.2991 21.6171 87.1862 21.6474L81.2626 23.2346C81.1668 23.2603 81.1148 23.364 81.1528 23.4556C81.1844 23.5317 81.2677 23.5721 81.3473 23.5507L87.2709 21.9635C87.3346 21.9464 87.3818 21.8928 87.3907 21.8274Z" fill="#006341"/>
<path d="M87.2669 22.7409C87.2852 22.6062 87.1407 22.5092 87.023 22.5772L82.2977 25.3054C82.2165 25.3522 82.1903 25.4571 82.2409 25.5359C82.2882 25.6098 82.3853 25.6327 82.4613 25.5888L87.1866 22.8606C87.2305 22.8353 87.2601 22.7911 87.2669 22.7409Z" fill="#006341"/>
<path d="M87.0772 24.141C87.0983 23.9858 86.9102 23.8925 86.7994 24.0033L83.6605 27.1422C83.5982 27.2044 83.5955 27.3046 83.6551 27.3694C83.7183 27.4381 83.8259 27.4396 83.8919 27.3736L87.0308 24.2347C87.0561 24.2094 87.0724 24.1765 87.0772 24.141Z" fill="#006341"/>
<path d="M86.6795 27.0763C86.7036 26.8986 86.4654 26.8172 86.3757 26.9725L85.3534 28.7431C85.3121 28.8147 85.3298 28.9059 85.3955 28.956C85.4742 29.016 85.5874 28.9925 85.6369 28.9068L86.6591 27.1362C86.6697 27.1177 86.6767 27.0974 86.6795 27.0763Z" fill="#006341"/>
<path d="M87.9917 28.3432C87.9176 28.3432 87.8528 28.3929 87.8336 28.4645L87.4025 30.0735C87.3823 30.1488 87.4172 30.2281 87.4869 30.2631C87.5798 30.3098 87.6917 30.2587 87.7186 30.1582L88.1497 28.5492C88.1776 28.4452 88.0993 28.3432 87.9917 28.3432Z" fill="#006341"/>
<path d="M90.0002 28.3432C89.9099 28.3432 89.8366 28.4164 89.8366 28.5068V31.0506C89.8366 31.1246 89.8857 31.1897 89.9572 31.2091C89.9852 31.2168 90.0149 31.2168 90.0429 31.2091C90.1145 31.1897 90.1639 31.1244 90.1639 31.0502V28.5068C90.1639 28.4164 90.0906 28.3432 90.0002 28.3432Z" fill="#006341"/>
<path d="M91.8451 28.3432C91.7376 28.3432 91.6592 28.4452 91.6871 28.5492L92.1373 30.2296C92.1641 30.3292 92.2745 30.3806 92.3673 30.3354C92.438 30.3009 92.4738 30.2209 92.4535 30.1449L92.0032 28.4645C91.984 28.3929 91.9192 28.3432 91.8451 28.3432Z" fill="#006341"/>
<path d="M93.3706 27.4458C93.3735 27.4669 93.3804 27.4873 93.391 27.5057L94.2495 28.9925C94.2986 29.0776 94.4106 29.1015 94.4894 29.0428C94.5562 28.993 94.5746 28.901 94.5329 28.8289L93.6745 27.3421C93.5848 27.1867 93.3465 27.2681 93.3706 27.4458Z" fill="#006341"/>
<path d="M92.9484 24.3299C92.9532 24.3653 92.9696 24.3983 92.9949 24.4236L96.0296 27.4583C96.0952 27.5239 96.202 27.5229 96.2654 27.4552C96.326 27.3905 96.3237 27.2895 96.261 27.2269L93.2263 24.1922C93.1155 24.0814 92.9274 24.1746 92.9484 24.3299Z" fill="#006341"/>
<path d="M92.747 22.8432C92.7538 22.8934 92.7835 22.9376 92.8274 22.9629L97.4945 25.6575C97.5701 25.7011 97.6667 25.6787 97.7143 25.6054C97.7656 25.5265 97.7396 25.4211 97.6581 25.374L92.991 22.6795C92.8732 22.6115 92.7288 22.7084 92.747 22.8432Z" fill="#006341"/>
<path d="M92.6155 21.8728C92.6244 21.9382 92.6716 21.9918 92.7354 22.0089L98.6364 23.5901C98.7158 23.6114 98.7989 23.5713 98.8307 23.4954C98.8691 23.4037 98.8171 23.2997 98.7211 23.274L92.8201 21.6928C92.7072 21.6625 92.5999 21.757 92.6155 21.8728Z" fill="#006341"/>
<path d="M93.2468 20.9696C93.154 21.0722 93.2239 21.2454 93.3622 21.2454H99.4114C99.4891 21.2454 99.5565 21.1916 99.5725 21.1155C99.594 21.0135 99.5156 20.9182 99.4114 20.9182H93.3616C93.3178 20.9182 93.2762 20.9372 93.2468 20.9696Z" fill="#006341"/>
<path d="M93.9661 19.8888C93.9084 20.012 94.0204 20.155 94.1518 20.1198L99.7364 18.6234C99.8078 18.6042 99.8581 18.5402 99.8587 18.4663C99.8596 18.3578 99.7565 18.2792 99.6517 18.3073L94.0666 19.8038C94.0222 19.8157 93.9856 19.8472 93.9661 19.8888Z" fill="#006341"/>
<path d="M94.3606 18.4197C94.3493 18.5494 94.4894 18.6443 94.6022 18.5792L99.4909 15.7567C99.5526 15.7211 99.5848 15.6499 99.57 15.5801C99.5469 15.471 99.4239 15.4175 99.3273 15.4733L94.4382 18.296C94.3937 18.3217 94.365 18.3685 94.3606 18.4197Z" fill="#006341"/>
<path d="M94.183 16.7403C94.2189 16.8566 94.3672 16.8983 94.4533 16.8122L96.7258 14.5398C96.8176 14.4479 96.7684 14.2902 96.6411 14.2643C96.5878 14.2535 96.5328 14.2699 96.4944 14.3083L94.2217 16.581C94.18 16.6227 94.1656 16.684 94.183 16.7403Z" fill="#006341"/>
<path d="M93.3134 15.1735C93.3863 15.2579 93.5224 15.2486 93.5782 15.152L94.359 13.7996C94.4089 13.7132 94.3692 13.6026 94.2763 13.5662C94.2013 13.5368 94.1158 13.5662 94.0755 13.636L93.2947 14.9885C93.2605 15.0476 93.2688 15.1219 93.3134 15.1735Z" fill="#006341"/>
<path d="M91.8339 14.0583C91.9252 14.1005 92.0341 14.0524 92.0602 13.9552L92.3721 12.7911C92.3911 12.7201 92.3598 12.6453 92.2963 12.6083C92.2034 12.5542 92.0838 12.6025 92.056 12.7064L91.744 13.8706C91.7237 13.9464 91.7627 14.0254 91.8339 14.0583Z" fill="#006341"/>
<path d="M115.584 26.16C112.464 26.16 110.576 23.984 110.576 20.64C110.576 17.296 112.464 15.12 115.584 15.12C118.464 15.12 120.208 16.72 120.208 19.296V19.392H118.368V19.296C118.368 17.536 117.552 16.784 115.536 16.784C113.312 16.784 112.416 17.856 112.416 20.64C112.416 23.424 113.312 24.496 115.536 24.496C117.552 24.496 118.368 23.744 118.368 21.984V21.888H120.208V21.984C120.208 24.56 118.464 26.16 115.584 26.16ZM125.277 26.16C122.829 26.16 121.309 24.496 121.309 22.016C121.309 19.552 122.829 17.888 125.277 17.888C127.709 17.888 129.181 19.552 129.181 22.016C129.181 24.496 127.709 26.16 125.277 26.16ZM125.277 24.624C126.941 24.624 127.517 23.808 127.517 22.016C127.517 20.24 126.941 19.424 125.277 19.424C123.597 19.424 123.005 20.24 123.005 22.016C123.005 23.808 123.597 24.624 125.277 24.624ZM132.201 26H130.473V18.048H132.057V19.536H132.121C132.489 18.688 133.337 17.888 134.889 17.888C136.953 17.888 137.881 19.2 137.881 21.008V26H136.153V21.392C136.153 19.968 135.705 19.376 134.249 19.376C132.841 19.376 132.201 19.92 132.201 21.408V26ZM141.264 26H139.536V18.048H141.12V19.536H141.184C141.552 18.688 142.4 17.888 143.952 17.888C146.016 17.888 146.944 19.2 146.944 21.008V26H145.216V21.392C145.216 19.968 144.768 19.376 143.312 19.376C141.904 19.376 141.264 19.92 141.264 21.408V26ZM152.103 26.16C149.479 26.16 148.247 24.496 148.247 22.016C148.247 19.552 149.719 17.888 152.087 17.888C154.231 17.888 155.735 19.168 155.735 21.344C155.735 21.76 155.687 22.192 155.639 22.432H149.863C149.927 23.888 150.455 24.624 152.119 24.624C153.447 24.624 153.959 24.176 153.959 23.456V23.328H155.671V23.472C155.671 25.104 154.247 26.16 152.103 26.16ZM152.055 19.344C150.551 19.344 149.975 20.048 149.879 21.28H154.087C154.151 19.92 153.415 19.344 152.055 19.344ZM160.76 26.176C158.28 26.176 156.872 24.496 156.872 22.032C156.872 19.552 158.328 17.888 160.824 17.888C162.92 17.888 164.36 19.184 164.36 21.088V21.232H162.648V21.136C162.648 19.968 162.04 19.44 160.712 19.44C159.176 19.44 158.584 20.304 158.584 22.032C158.584 23.76 159.176 24.608 160.712 24.608C162.04 24.608 162.648 24.096 162.648 22.928V22.832H164.36V22.976C164.36 24.864 162.904 26.176 160.76 26.176ZM168.91 26C167.134 26 166.206 25.344 166.206 23.552V19.488H164.878V18.048H166.238L166.606 16.08H167.934V18.048H170.334V19.488H167.934V23.472C167.934 24.304 168.286 24.448 169.358 24.448H170.334V25.856C169.998 25.936 169.454 26 168.91 26ZM175.896 28.72C175.464 28.72 174.968 28.656 174.696 28.576V27.168H175.784C176.472 27.168 176.712 27.056 176.968 26.464L177.272 25.792L173.896 18.048H175.799L177.4 21.904L178.12 23.632H178.248L178.904 21.904L180.36 18.048H182.264L178.504 26.944C177.911 28.352 177.144 28.72 175.896 28.72ZM186.402 26.16C183.954 26.16 182.434 24.496 182.434 22.016C182.434 19.552 183.954 17.888 186.402 17.888C188.834 17.888 190.306 19.552 190.306 22.016C190.306 24.496 188.834 26.16 186.402 26.16ZM186.402 24.624C188.066 24.624 188.642 23.808 188.642 22.016C188.642 20.24 188.066 19.424 186.402 19.424C184.722 19.424 184.13 20.24 184.13 22.016C184.13 23.808 184.722 24.624 186.402 24.624ZM194.558 26.16C192.478 26.16 191.55 24.768 191.55 22.96V18.048H193.278V22.656C193.278 24.08 193.822 24.672 195.198 24.672C196.526 24.672 197.278 24.096 197.278 22.528V18.048H199.006V26H197.406V24.416H197.342C196.958 25.328 196.11 26.16 194.558 26.16ZM202.435 26H200.707V18H202.291V19.264H202.371C202.691 18.528 203.427 17.888 204.595 17.888C206.259 17.888 206.899 19.104 206.899 20.592V21.12H205.171V20.8C205.171 19.744 204.867 19.36 203.859 19.36C202.819 19.36 202.435 19.76 202.435 20.816V26ZM212.905 26H211.177V15.28H212.905V26ZM217.673 26.16C215.401 26.16 214.169 24.544 214.169 22.016C214.169 19.504 215.385 17.888 217.577 17.888C218.985 17.888 219.833 18.56 220.185 19.28H220.233V15.28H221.945V26H220.361V24.688H220.297C219.913 25.6 219.033 26.16 217.673 26.16ZM215.897 22.016C215.897 23.984 216.521 24.688 218.057 24.688C219.465 24.688 220.233 24.064 220.233 22.736V21.312C220.233 19.984 219.465 19.36 218.057 19.36C216.537 19.36 215.897 20.064 215.897 22.016ZM227.118 26.16C224.494 26.16 223.262 24.496 223.262 22.016C223.262 19.552 224.734 17.888 227.102 17.888C229.246 17.888 230.75 19.168 230.75 21.344C230.75 21.76 230.702 22.192 230.654 22.432H224.878C224.942 23.888 225.47 24.624 227.134 24.624C228.462 24.624 228.974 24.176 228.974 23.456V23.328H230.686V23.472C230.686 25.104 229.262 26.16 227.118 26.16ZM227.07 19.344C225.566 19.344 224.99 20.048 224.894 21.28H229.102C229.166 19.92 228.43 19.344 227.07 19.344ZM233.857 26H232.129V18.048H233.713V19.536H233.777C234.145 18.688 234.993 17.888 236.545 17.888C238.609 17.888 239.537 19.2 239.537 21.008V26H237.809V21.392C237.809 19.968 237.361 19.376 235.905 19.376C234.497 19.376 233.857 19.92 233.857 21.408V26ZM244.426 26C242.65 26 241.722 25.344 241.722 23.552V19.488H240.394V18.048H241.754L242.122 16.08H243.45V18.048H245.85V19.488H243.45V23.472C243.45 24.304 243.802 24.448 244.874 24.448H245.85V25.856C245.514 25.936 244.97 26 244.426 26ZM248.589 17.04H246.877L246.861 15.28H248.589V17.04ZM248.605 26H246.877V18H248.605V26ZM253.457 26C251.681 26 250.753 25.344 250.753 23.552V19.488H249.425V18.048H250.785L251.153 16.08H252.481V18.048H254.881V19.488H252.481V23.472C252.481 24.304 252.833 24.448 253.905 24.448H254.881V25.856C254.545 25.936 254.001 26 253.457 26ZM257.13 28.72C256.698 28.72 256.202 28.656 255.93 28.576V27.168H257.018C257.706 27.168 257.946 27.056 258.202 26.464L258.506 25.792L255.13 18.048H257.034L258.634 21.904L259.354 23.632H259.482L260.138 21.904L261.594 18.048H263.498L259.738 26.944C259.146 28.352 258.378 28.72 257.13 28.72Z" fill="white"/>
</g>
<defs>
<filter id="filter0_dd_18_1103" x="0" y="0" width="342" height="44" filterUnits="userSpaceOnUse" color-interpolation-filters="sRGB">
<feFlood flood-opacity="0" result="BackgroundImageFix"/>
<feColorMatrix in="SourceAlpha" type="matrix" values="0 0 0 0 0 0 0 0 0 0 0 0 0 0 0 0 0 0 127 0" result="hardAlpha"/>
<feMorphology radius="1" operator="dilate" in="SourceAlpha" result="effect1_dropShadow_18_1103"/>
<feOffset/>
<feComposite in2="hardAlpha" operator="out"/>
<feColorMatrix type="matrix" values="0 0 0 0 0 0 0 0 0 0.388235 0 0 0 0 0.254902 0 0 0 1 0"/>
<feBlend mode="normal" in2="BackgroundImageFix" result="effect1_dropShadow_18_1103"/>
<feColorMatrix in="SourceAlpha" type="matrix" values="0 0 0 0 0 0 0 0 0 0 0 0 0 0 0 0 0 0 127 0" result="hardAlpha"/>
<feOffset dy="1"/>
<feGaussianBlur stdDeviation="1"/>
<feComposite in2="hardAlpha" operator="out"/>
<feColorMatrix type="matrix" values="0 0 0 0 0 0 0 0 0 0 0 0 0 0 0 0 0 0 0.3 0"/>
<feBlend mode="normal" in2="effect1_dropShadow_18_1103" result="effect2_dropShadow_18_1103"/>
<feBlend mode="normal" in="SourceGraphic" in2="effect2_dropShadow_18_1103" result="shape"/>
</filter>
<linearGradient id="paint0_linear_18_1103" x1="171" y1="1" x2="171" y2="41" gradientUnits="userSpaceOnUse">
<stop stop-color="#008248"/>
<stop offset="1" stop-color="#006341"/>
</linearGradient>
<linearGradient id="paint1_linear_18_1103" x1="171" y1="1" x2="171" y2="41" gradientUnits="userSpaceOnUse">
<stop stop-color="white"/>
<stop offset="1" stop-color="white" stop-opacity="0"/>
</linearGradient>
</defs>
</svg>
