<svg width="232" height="44" viewBox="0 0 232 44" fill="none" xmlns="http://www.w3.org/2000/svg">
<g filter="url(#filter0_dd_10_124)">
<rect x="2.5" y="1" width="227" height="40" rx="6" fill="url(#paint0_linear_10_124)"/>
<rect x="3" y="1.5" width="226" height="39" rx="5.5" stroke="url(#paint1_linear_10_124)" stroke-opacity="0.2"/>
<path fill-rule="evenodd" clip-rule="evenodd" d="M35.0951 9.6076C34.7613 9.29153 34.2387 9.29153 33.9049 9.6076C31.5779 11.8114 28.438 13.1618 24.9808 13.1618C24.9258 13.1618 24.8708 13.1615 24.816 13.1608C24.4383 13.1561 24.1012 13.3969 23.9832 13.7558C23.5072 15.2036 23.25 16.7497 23.25 18.3542C23.25 25.2103 27.9393 30.9691 34.2843 32.6022C34.4258 32.6386 34.5742 32.6386 34.7157 32.6022C41.0607 30.9691 45.75 25.2103 45.75 18.3542C45.75 16.7497 45.4928 15.2036 45.0168 13.7558C44.8988 13.3969 44.5617 13.1561 44.184 13.1608C44.1292 13.1615 44.0742 13.1618 44.0192 13.1618C40.562 13.1618 37.4221 11.8114 35.0951 9.6076Z" fill="white"/>
<path fill-rule="evenodd" clip-rule="evenodd" d="M33.882 20.5368C32.7571 20.2599 31.9227 19.2445 31.9227 18.0341C31.9227 16.6107 33.0766 15.4568 34.5 15.4568C35.9234 15.4568 37.0773 16.6107 37.0773 18.0341C37.0773 19.2445 36.243 20.2599 35.1181 20.5368L35.9318 26.5432H33.0682L33.882 20.5368ZM36.3268 21.2312C37.4348 20.5968 38.1818 19.4036 38.1818 18.0341C38.1818 16.0007 36.5334 14.3523 34.5 14.3523C32.4666 14.3523 30.8182 16.0007 30.8182 18.0341C30.8182 19.4036 31.5652 20.5968 32.6733 21.2312L31.8039 27.6477H37.1961L36.3268 21.2312Z" fill="#006341"/>
<path fill-rule="evenodd" clip-rule="evenodd" d="M33.8819 20.5368C32.757 20.2599 31.9227 19.2444 31.9227 18.0341C31.9227 16.6107 33.0766 15.4568 34.5 15.4568C35.9234 15.4568 37.0773 16.6107 37.0773 18.0341C37.0773 19.2444 36.2429 20.2599 35.118 20.5368L35.9318 26.5432H33.0682L33.8819 20.5368ZM35.8827 21.001C36.9989 20.4799 37.7727 19.348 37.7727 18.0341C37.7727 16.2266 36.3075 14.7614 34.5 14.7614C32.6925 14.7614 31.2273 16.2266 31.2273 18.0341C31.2273 19.348 32.0011 20.4799 33.1172 21.001L32.2721 27.2386H36.7278L35.8827 21.001Z" fill="white"/>
<path d="M35.118 20.5368C36.2429 20.2599 37.0773 19.2445 37.0773 18.0341C37.0773 16.6107 35.9234 15.4568 34.5 15.4568C33.0766 15.4568 31.9227 16.6107 31.9227 18.0341C31.9227 19.2445 32.7571 20.2599 33.882 20.5368L33.0682 26.5432H35.9318L35.118 20.5368Z" fill="#006341"/>
<path d="M34.3365 11.1648C34.3365 11.1178 34.3571 11.0731 34.3927 11.0423C34.4542 10.9889 34.5459 10.989 34.6075 11.0424C34.6431 11.0733 34.6638 11.1181 34.6638 11.1653V13.496C34.6638 13.5855 34.5895 13.6568 34.5 13.6568C34.4107 13.6568 34.3365 13.5856 34.3365 13.4963V11.1648Z" fill="#006341"/>
<path d="M32.5269 14.1257C32.595 14.0912 32.6312 14.0142 32.6115 13.9405L32.3026 12.7877C32.275 12.6846 32.1567 12.6361 32.0638 12.6888C31.9994 12.7254 31.9673 12.8008 31.9865 12.8724L32.2954 14.0252C32.322 14.1246 32.4351 14.1721 32.5269 14.1257Z" fill="#006341"/>
<path d="M31.0936 15.2848C31.1353 15.2333 31.142 15.1615 31.1088 15.1041L30.291 13.6875C30.251 13.6183 30.1665 13.5887 30.0918 13.6172C29.9979 13.6529 29.9573 13.7642 30.0076 13.8512L30.8253 15.2676C30.8822 15.3661 31.0221 15.3733 31.0936 15.2848Z" fill="#006341"/>
<path d="M30.2814 16.8619C30.2967 16.8068 30.2819 16.7478 30.2414 16.7073L27.8694 14.3353C27.8314 14.2973 27.777 14.2808 27.7242 14.2911C27.5961 14.3158 27.5457 14.4745 27.638 14.5668L30.0098 16.9386C30.0973 17.0261 30.2484 16.9811 30.2814 16.8619Z" fill="#006341"/>
<path d="M30.1489 18.5159C30.1435 18.4662 30.1151 18.421 30.0718 18.396L25.1553 15.5575C25.0582 15.5015 24.9348 15.5556 24.9123 15.6653C24.8981 15.7348 24.9302 15.8054 24.9916 15.8409L29.9078 18.6792C30.0218 18.7451 30.1633 18.6468 30.1489 18.5159Z" fill="#006341"/>
<path d="M30.557 19.9371C30.5373 19.8964 30.5011 19.8657 30.4574 19.854L24.8488 18.3511C24.7438 18.323 24.6406 18.402 24.6418 18.5107C24.6427 18.5845 24.6928 18.6482 24.7641 18.6672L30.3722 20.17C30.5044 20.2054 30.6165 20.0602 30.557 19.9371Z" fill="#006341"/>
<path d="M31.2532 20.9696C31.2238 20.9372 31.1823 20.9182 31.1385 20.9182H25.0887C24.9844 20.9182 24.906 21.0135 24.9275 21.1155C24.9435 21.1916 25.0109 21.2454 25.0887 21.2454H31.1379C31.2762 21.2454 31.346 21.0722 31.2532 20.9696Z" fill="#006341"/>
<path d="M31.8906 21.8274C31.9063 21.7116 31.799 21.6171 31.6861 21.6474L25.7626 23.2346C25.6667 23.2603 25.6147 23.364 25.6528 23.4556C25.6843 23.5317 25.7676 23.5721 25.8473 23.5507L31.7708 21.9635C31.8346 21.9464 31.8818 21.8928 31.8906 21.8274Z" fill="#006341"/>
<path d="M31.7669 22.7409C31.7851 22.6062 31.6407 22.5092 31.5229 22.5772L26.7976 25.3054C26.7165 25.3522 26.6902 25.4571 26.7408 25.5359C26.7882 25.6098 26.8853 25.6327 26.9612 25.5888L31.6865 22.8606C31.7304 22.8353 31.7601 22.7911 31.7669 22.7409Z" fill="#006341"/>
<path d="M31.5772 24.141C31.5982 23.9858 31.4101 23.8925 31.2993 24.0033L28.1605 27.1422C28.0982 27.2044 28.0954 27.3046 28.155 27.3694C28.2183 27.4381 28.3259 27.4396 28.3919 27.3736L31.5307 24.2347C31.5561 24.2094 31.5724 24.1765 31.5772 24.141Z" fill="#006341"/>
<path d="M31.1795 27.0763C31.2036 26.8986 30.9653 26.8172 30.8756 26.9725L29.8534 28.7431C29.812 28.8147 29.8297 28.9059 29.8955 28.956C29.9742 29.016 30.0873 28.9925 30.1368 28.9068L31.1591 27.1362C31.1697 27.1177 31.1766 27.0974 31.1795 27.0763Z" fill="#006341"/>
<path d="M32.4916 28.3432C32.4176 28.3432 32.3527 28.3929 32.3336 28.4645L31.9024 30.0735C31.8822 30.1488 31.9172 30.2281 31.9868 30.2631C32.0798 30.3098 32.1916 30.2587 32.2185 30.1582L32.6497 28.5492C32.6775 28.4452 32.5992 28.3432 32.4916 28.3432Z" fill="#006341"/>
<path d="M34.5002 28.3432C34.4098 28.3432 34.3365 28.4164 34.3365 28.5068V31.0506C34.3365 31.1246 34.3857 31.1897 34.4571 31.2091C34.4852 31.2168 34.5148 31.2168 34.5429 31.2091C34.6145 31.1897 34.6638 31.1244 34.6638 31.0502V28.5068C34.6638 28.4164 34.5906 28.3432 34.5002 28.3432Z" fill="#006341"/>
<path d="M36.3451 28.3432C36.2375 28.3432 36.1592 28.4452 36.187 28.5492L36.6373 30.2296C36.664 30.3292 36.7744 30.3806 36.8672 30.3354C36.938 30.3009 36.9738 30.2209 36.9534 30.1449L36.5032 28.4645C36.484 28.3929 36.4192 28.3432 36.3451 28.3432Z" fill="#006341"/>
<path d="M37.8706 27.4458C37.8734 27.4669 37.8804 27.4873 37.891 27.5057L38.7494 28.9925C38.7985 29.0776 38.9105 29.1015 38.9893 29.0428C39.0562 28.993 39.0745 28.901 39.0328 28.8289L38.1744 27.3421C38.0847 27.1867 37.8465 27.2681 37.8706 27.4458Z" fill="#006341"/>
<path d="M37.4484 24.3299C37.4532 24.3653 37.4695 24.3983 37.4948 24.4236L40.5295 27.4583C40.5952 27.5239 40.702 27.5229 40.7654 27.4552C40.8259 27.3905 40.8236 27.2895 40.761 27.2269L37.7263 24.1922C37.6155 24.0814 37.4274 24.1746 37.4484 24.3299Z" fill="#006341"/>
<path d="M37.247 22.8432C37.2538 22.8934 37.2834 22.9376 37.3273 22.9629L41.9944 25.6575C42.0701 25.7011 42.1667 25.6787 42.2143 25.6054C42.2656 25.5265 42.2395 25.4211 42.158 25.374L37.4909 22.6795C37.3732 22.6115 37.2287 22.7084 37.247 22.8432Z" fill="#006341"/>
<path d="M37.1155 21.8728C37.1244 21.9382 37.1716 21.9918 37.2353 22.0089L43.1363 23.5901C43.2158 23.6114 43.2989 23.5713 43.3306 23.4954C43.369 23.4037 43.3171 23.2997 43.221 23.274L37.32 21.6928C37.2071 21.6625 37.0998 21.757 37.1155 21.8728Z" fill="#006341"/>
<path d="M37.7468 20.9696C37.654 21.0722 37.7238 21.2454 37.8621 21.2454H43.9113C43.9891 21.2454 44.0564 21.1916 44.0725 21.1155C44.094 21.0135 44.0156 20.9182 43.9113 20.9182H37.8615C37.8177 20.9182 37.7762 20.9372 37.7468 20.9696Z" fill="#006341"/>
<path d="M38.466 19.8888C38.4083 20.012 38.5203 20.155 38.6517 20.1198L44.2364 18.6234C44.3078 18.6042 44.358 18.5402 44.3586 18.4663C44.3595 18.3578 44.2564 18.2792 44.1516 18.3073L38.5665 19.8038C38.5221 19.8157 38.4855 19.8472 38.466 19.8888Z" fill="#006341"/>
<path d="M38.8605 18.4197C38.8492 18.5494 38.9894 18.6443 39.1021 18.5792L43.9909 15.7567C44.0526 15.7211 44.0847 15.6499 44.07 15.5801C44.0468 15.471 43.9238 15.4175 43.8272 15.4733L38.9382 18.296C38.8937 18.3217 38.865 18.3685 38.8605 18.4197Z" fill="#006341"/>
<path d="M38.6829 16.7403C38.7189 16.8566 38.8672 16.8983 38.9533 16.8122L41.2257 14.5398C41.3175 14.4479 41.2683 14.2902 41.141 14.2643C41.0878 14.2535 41.0327 14.2699 40.9943 14.3083L38.7217 16.581C38.68 16.6227 38.6655 16.684 38.6829 16.7403Z" fill="#006341"/>
<path d="M37.8134 15.1735C37.8863 15.2579 38.0224 15.2486 38.0781 15.152L38.8589 13.7996C38.9088 13.7132 38.8692 13.6026 38.7762 13.5662C38.7012 13.5368 38.6158 13.5662 38.5755 13.636L37.7946 14.9885C37.7605 15.0476 37.7687 15.1219 37.8134 15.1735Z" fill="#006341"/>
<path d="M36.3339 14.0583C36.4252 14.1005 36.5341 14.0524 36.5601 13.9552L36.8721 12.7911C36.8911 12.7201 36.8598 12.6453 36.7963 12.6083C36.7033 12.5542 36.5838 12.6025 36.5559 12.7064L36.244 13.8706C36.2237 13.9464 36.2626 14.0254 36.3339 14.0583Z" fill="#006341"/>
<path d="M60.084 26.16C56.964 26.16 55.076 23.984 55.076 20.64C55.076 17.296 56.964 15.12 60.084 15.12C62.964 15.12 64.708 16.72 64.708 19.296V19.392H62.868V19.296C62.868 17.536 62.052 16.784 60.036 16.784C57.812 16.784 56.916 17.856 56.916 20.64C56.916 23.424 57.812 24.496 60.036 24.496C62.052 24.496 62.868 23.744 62.868 21.984V21.888H64.708V21.984C64.708 24.56 62.964 26.16 60.084 26.16ZM69.7773 26.16C67.3293 26.16 65.8092 24.496 65.8092 22.016C65.8092 19.552 67.3293 17.888 69.7773 17.888C72.2093 17.888 73.6813 19.552 73.6813 22.016C73.6813 24.496 72.2093 26.16 69.7773 26.16ZM69.7773 24.624C71.4413 24.624 72.0173 23.808 72.0173 22.016C72.0173 20.24 71.4413 19.424 69.7773 19.424C68.0973 19.424 67.5053 20.24 67.5053 22.016C67.5053 23.808 68.0973 24.624 69.7773 24.624ZM76.701 26H74.973V18.048H76.557V19.536H76.621C76.989 18.688 77.837 17.888 79.389 17.888C81.453 17.888 82.381 19.2 82.381 21.008V26H80.653V21.392C80.653 19.968 80.205 19.376 78.749 19.376C77.341 19.376 76.701 19.92 76.701 21.408V26ZM87.2698 26C85.4938 26 84.5658 25.344 84.5658 23.552V19.488H83.2378V18.048H84.5978L84.9658 16.08H86.2938V18.048H88.6938V19.488H86.2938V23.472C86.2938 24.304 86.6458 24.448 87.7178 24.448H88.6938V25.856C88.3578 25.936 87.8138 26 87.2698 26ZM91.4328 17.04H89.7208L89.7048 15.28H91.4328V17.04ZM91.4488 26H89.7208V18H91.4488V26ZM94.7635 26H93.0355V18.048H94.6195V19.536H94.6835C95.0515 18.688 95.8995 17.888 97.4515 17.888C99.5155 17.888 100.444 19.2 100.444 21.008V26H98.7155V21.392C98.7155 19.968 98.2675 19.376 96.8115 19.376C95.4035 19.376 94.7635 19.92 94.7635 21.408V26ZM105.058 26.16C102.978 26.16 102.05 24.768 102.05 22.96V18.048H103.778V22.656C103.778 24.08 104.322 24.672 105.698 24.672C107.026 24.672 107.778 24.096 107.778 22.528V18.048H109.506V26H107.906V24.416H107.842C107.458 25.328 106.61 26.16 105.058 26.16ZM114.712 26.16C112.088 26.16 110.856 24.496 110.856 22.016C110.856 19.552 112.328 17.888 114.696 17.888C116.84 17.888 118.344 19.168 118.344 21.344C118.344 21.76 118.296 22.192 118.248 22.432H112.472C112.536 23.888 113.064 24.624 114.728 24.624C116.056 24.624 116.568 24.176 116.568 23.456V23.328H118.28V23.472C118.28 25.104 116.856 26.16 114.712 26.16ZM114.664 19.344C113.16 19.344 112.584 20.048 112.488 21.28H116.696C116.76 19.92 116.024 19.344 114.664 19.344ZM126.369 26H124.113L122.145 18.048H124.017L124.929 22.464L125.249 24.56H125.377L125.905 22.464L127.297 18.048H129.537L130.945 22.48L131.441 24.56H131.569L131.889 22.48L132.817 18.048H134.609L132.641 26H130.401L128.977 21.568L128.449 19.568H128.321L127.809 21.568L126.369 26ZM137.058 17.04H135.346L135.33 15.28H137.058V17.04ZM137.074 26H135.346V18H137.074V26ZM141.926 26C140.15 26 139.222 25.344 139.222 23.552V19.488H137.894V18.048H139.254L139.622 16.08H140.95V18.048H143.35V19.488H140.95V23.472C140.95 24.304 141.302 24.448 142.374 24.448H143.35V25.856C143.014 25.936 142.47 26 141.926 26ZM146.31 26H144.582V15.28H146.31V19.376H146.374C146.742 18.656 147.59 17.888 149.03 17.888C151.11 17.888 151.99 19.248 151.99 20.992V26H150.262V21.392C150.262 19.968 149.814 19.376 148.358 19.376C146.95 19.376 146.31 19.92 146.31 21.424V26ZM161.875 26H156.755V15.28H161.683C163.779 15.28 165.043 16.144 165.043 17.952C165.043 19.2 164.339 20.048 162.963 20.256V20.384C164.595 20.592 165.427 21.648 165.427 23.056C165.427 24.88 164.131 26 161.875 26ZM158.483 16.832V19.728H161.523C162.819 19.728 163.331 19.376 163.331 18.288C163.331 17.184 162.867 16.832 161.571 16.832H158.483ZM158.483 21.168V24.448H161.827C163.123 24.448 163.683 24.08 163.683 22.816C163.683 21.536 163.123 21.168 161.827 21.168H158.483ZM168.529 26H166.801V15.28H168.529V26ZM173.809 26.16C171.361 26.16 169.84 24.496 169.84 22.016C169.84 19.552 171.361 17.888 173.809 17.888C176.241 17.888 177.713 19.552 177.713 22.016C177.713 24.496 176.241 26.16 173.809 26.16ZM173.809 24.624C175.473 24.624 176.049 23.808 176.049 22.016C176.049 20.24 175.473 19.424 173.809 19.424C172.129 19.424 171.537 20.24 171.537 22.016C171.537 23.808 172.129 24.624 173.809 24.624ZM182.65 26.176C180.17 26.176 178.762 24.496 178.762 22.032C178.762 19.552 180.218 17.888 182.714 17.888C184.81 17.888 186.25 19.184 186.25 21.088V21.232H184.538V21.136C184.538 19.968 183.93 19.44 182.602 19.44C181.066 19.44 180.474 20.304 180.474 22.032C180.474 23.76 181.066 24.608 182.602 24.608C183.93 24.608 184.538 24.096 184.538 22.928V22.832H186.25V22.976C186.25 24.864 184.794 26.176 182.65 26.176ZM189.295 26H187.567V15.28H189.295V21.2H190.863L192.991 18.048H195.023L192.255 21.808L194.975 26H192.959L190.879 22.752H189.295V26ZM197.749 26H196.021V15.28H197.749V26ZM203.376 26H199.568V15.28H203.376C206.688 15.28 208.8 17.328 208.8 20.64C208.8 23.952 206.688 26 203.376 26ZM203.376 16.832H201.296V24.448H203.376C205.936 24.448 206.96 23.392 206.96 20.64C206.96 17.888 205.936 16.832 203.376 16.832Z" fill="white"/>
</g>
<defs>
<filter id="filter0_dd_10_124" x="0.5" y="0" width="231" height="44" filterUnits="userSpaceOnUse" color-interpolation-filters="sRGB">
<feFlood flood-opacity="0" result="BackgroundImageFix"/>
<feColorMatrix in="SourceAlpha" type="matrix" values="0 0 0 0 0 0 0 0 0 0 0 0 0 0 0 0 0 0 127 0" result="hardAlpha"/>
<feMorphology radius="1" operator="dilate" in="SourceAlpha" result="effect1_dropShadow_10_124"/>
<feOffset/>
<feComposite in2="hardAlpha" operator="out"/>
<feColorMatrix type="matrix" values="0 0 0 0 0 0 0 0 0 0.388235 0 0 0 0 0.254902 0 0 0 1 0"/>
<feBlend mode="normal" in2="BackgroundImageFix" result="effect1_dropShadow_10_124"/>
<feColorMatrix in="SourceAlpha" type="matrix" values="0 0 0 0 0 0 0 0 0 0 0 0 0 0 0 0 0 0 127 0" result="hardAlpha"/>
<feOffset dy="1"/>
<feGaussianBlur stdDeviation="1"/>
<feComposite in2="hardAlpha" operator="out"/>
<feColorMatrix type="matrix" values="0 0 0 0 0 0 0 0 0 0 0 0 0 0 0 0 0 0 0.3 0"/>
<feBlend mode="normal" in2="effect1_dropShadow_10_124" result="effect2_dropShadow_10_124"/>
<feBlend mode="normal" in="SourceGraphic" in2="effect2_dropShadow_10_124" result="shape"/>
</filter>
<linearGradient id="paint0_linear_10_124" x1="116" y1="1" x2="116" y2="41" gradientUnits="userSpaceOnUse">
<stop stop-color="#008248"/>
<stop offset="1" stop-color="#006341"/>
</linearGradient>
<linearGradient id="paint1_linear_10_124" x1="116" y1="1" x2="116" y2="41" gradientUnits="userSpaceOnUse">
<stop stop-color="white"/>
<stop offset="1" stop-color="white" stop-opacity="0"/>
</linearGradient>
</defs>
</svg>
