<svg width="128" height="26" viewBox="0 0 128 26" fill="none" xmlns="http://www.w3.org/2000/svg">
<circle cx="13" cy="13" r="13" fill="#F0B90B"/>
<path d="M127.436 20.1021H116.603V5.89807H127.436V8.76007H119.783V11.5373H127.118V14.3781H119.783V17.2401H127.436V20.1021Z" fill="#F0B90B"/>
<path d="M107.114 20.314C102.853 20.314 100.309 17.4308 100.309 13C100.309 8.56923 102.853 5.68604 107.114 5.68604C111.311 5.68604 113.58 7.89083 113.58 11.41V11.6008H110.188V11.4948C110.188 9.45963 109.34 8.76003 107.093 8.76003C104.697 8.76003 103.701 9.62924 103.701 13C103.701 16.3708 104.697 17.24 107.093 17.24C109.34 17.24 110.188 16.5404 110.188 14.5052V14.3992H113.58V14.59C113.58 18.1092 111.311 20.314 107.114 20.314Z" fill="#F0B90B"/>
<path d="M87.8926 20.1021H84.7126V5.89807H88.1046L92.705 13.0213L93.8922 14.9293H94.1042L94.0618 13.0213V5.89807H97.2418V20.1021H93.8498L89.4402 13.3817L88.0622 11.1981H87.8502L87.8926 13.3817V20.1021Z" fill="#F0B90B"/>
<path d="M70.779 20.1021H67.4718L72.7082 5.89807H77.3298L82.5662 20.1021H79.1106L77.9658 16.9433H71.945L70.779 20.1021ZM73.7894 11.8977L72.9838 14.1025H76.927L76.1214 11.8977L75.0826 8.69647H74.8706L73.7894 11.8977Z" fill="#F0B90B"/>
<path d="M55.9816 20.1021H52.8016V5.89807H56.1936L60.794 13.0213L61.9812 14.9293H62.1932L62.1508 13.0213V5.89807H65.3308V20.1021H61.9388L57.5292 13.3817L56.1512 11.1981H55.9392L55.9816 13.3817V20.1021Z" fill="#F0B90B"/>
<path d="M49.2597 20.1021H46.0797V5.89807H49.2597V20.1021Z" fill="#F0B90B"/>
<path d="M33.18 20.1021H30V5.89807H33.18V11.5373H39.3704V5.89807H42.5504V20.1021H39.3704V14.3781H33.18V20.1021Z" fill="#F0B90B"/>
</svg>
