<svg width="174" height="184" viewBox="0 0 174 184" fill="none" xmlns="http://www.w3.org/2000/svg">
<rect x="37" width="100" height="100" rx="50" fill="#00BA6E"/>
<path d="M72 51.5L84 63.5L102 36.5" stroke="white" stroke-width="3" stroke-linecap="round" stroke-linejoin="round"/>
<path d="M28.282 143.18C24.772 143.18 22.648 140.732 22.648 136.97C22.648 133.208 24.772 130.76 28.282 130.76C31.522 130.76 33.484 132.56 33.484 135.458V135.566H31.414V135.458C31.414 133.478 30.496 132.632 28.228 132.632C25.726 132.632 24.718 133.838 24.718 136.97C24.718 140.102 25.726 141.308 28.228 141.308C30.496 141.308 31.414 140.462 31.414 138.482V138.374H33.484V138.482C33.484 141.38 31.522 143.18 28.282 143.18ZM39.1869 143.18C36.4329 143.18 34.7229 141.308 34.7229 138.518C34.7229 135.746 36.4329 133.874 39.1869 133.874C41.9229 133.874 43.5789 135.746 43.5789 138.518C43.5789 141.308 41.9229 143.18 39.1869 143.18ZM39.1869 141.452C41.0589 141.452 41.7069 140.534 41.7069 138.518C41.7069 136.52 41.0589 135.602 39.1869 135.602C37.2969 135.602 36.6309 136.52 36.6309 138.518C36.6309 140.534 37.2969 141.452 39.1869 141.452ZM46.9761 143H45.0321V134.054H46.8141V135.728H46.8861C47.3001 134.774 48.2541 133.874 50.0001 133.874C52.3221 133.874 53.3661 135.35 53.3661 137.384V143H51.4221V137.816C51.4221 136.214 50.9181 135.548 49.2801 135.548C47.6961 135.548 46.9761 136.16 46.9761 137.834V143ZM58.6663 142.154C56.2003 142.154 54.8323 140.534 54.8323 138.014C54.8323 135.494 56.2183 133.874 58.7383 133.874C60.1783 133.874 61.2943 134.486 61.7263 135.53H61.7983V134.054H63.5803V142.352C63.5803 144.998 62.0323 146.24 59.4223 146.24C56.8843 146.24 55.3003 145.034 55.3003 142.874H57.2263C57.2263 144.098 57.6763 144.512 59.4763 144.512C61.2223 144.512 61.6543 144.008 61.6543 142.352V140.57H61.5823C61.1683 141.434 60.1243 142.154 58.6663 142.154ZM56.7763 138.014C56.7763 139.85 57.5323 140.498 59.2243 140.498C60.6823 140.498 61.6543 139.796 61.6543 138.284V137.726C61.6543 136.232 60.6823 135.53 59.1883 135.53C57.5143 135.53 56.7763 136.178 56.7763 138.014ZM67.4371 143H65.4931V134H67.2751V135.422H67.3651C67.7251 134.594 68.5531 133.874 69.8671 133.874C71.7391 133.874 72.4591 135.242 72.4591 136.916V137.51H70.5151V137.15C70.5151 135.962 70.1731 135.53 69.0391 135.53C67.8691 135.53 67.4371 135.98 67.4371 137.168V143ZM75.9391 143.18C74.3371 143.18 73.0951 142.352 73.0951 140.786C73.0951 139.31 74.1751 138.536 76.0831 138.266L79.2151 137.798V137.312C79.2151 135.98 78.6031 135.584 77.1991 135.584C75.7771 135.584 75.2191 136.034 75.2191 137.222V137.492H73.3471V137.312C73.3471 135.314 74.9131 133.874 77.3071 133.874C79.8091 133.874 81.0691 135.386 81.0691 137.564V143H79.2691V141.596H79.1791C78.6571 142.442 77.6311 143.18 75.9391 143.18ZM74.9851 140.642C74.9851 141.344 75.4351 141.632 76.5691 141.632C77.8291 141.632 79.2151 141.128 79.2151 139.328V139.166L76.3711 139.598C75.3451 139.742 74.9851 139.976 74.9851 140.642ZM86.5691 143C84.5711 143 83.5271 142.262 83.5271 140.246V135.674H82.0331V134.054H83.5631L83.9771 131.84H85.4711V134.054H88.1711V135.674H85.4711V140.156C85.4711 141.092 85.8671 141.254 87.0731 141.254H88.1711V142.838C87.7931 142.928 87.1811 143 86.5691 143ZM92.8348 143.18C90.4948 143.18 89.4508 141.614 89.4508 139.58V134.054H91.3948V139.238C91.3948 140.84 92.0068 141.506 93.5548 141.506C95.0488 141.506 95.8948 140.858 95.8948 139.094V134.054H97.8388V143H96.0388V141.218H95.9668C95.5348 142.244 94.5808 143.18 92.8348 143.18ZM101.697 143H99.7528V130.94H101.697V143ZM105.963 143.18C104.361 143.18 103.119 142.352 103.119 140.786C103.119 139.31 104.199 138.536 106.107 138.266L109.239 137.798V137.312C109.239 135.98 108.627 135.584 107.223 135.584C105.801 135.584 105.243 136.034 105.243 137.222V137.492H103.371V137.312C103.371 135.314 104.937 133.874 107.331 133.874C109.833 133.874 111.093 135.386 111.093 137.564V143H109.293V141.596H109.203C108.681 142.442 107.655 143.18 105.963 143.18ZM105.009 140.642C105.009 141.344 105.459 141.632 106.593 141.632C107.853 141.632 109.239 141.128 109.239 139.328V139.166L106.395 139.598C105.369 139.742 105.009 139.976 105.009 140.642ZM116.593 143C114.595 143 113.551 142.262 113.551 140.246V135.674H112.057V134.054H113.587L114.001 131.84H115.495V134.054H118.195V135.674H115.495V140.156C115.495 141.092 115.891 141.254 117.097 141.254H118.195V142.838C117.817 142.928 117.205 143 116.593 143ZM121.276 132.92H119.35L119.332 130.94H121.276V132.92ZM121.294 143H119.35V134H121.294V143ZM127.095 143.18C124.341 143.18 122.631 141.308 122.631 138.518C122.631 135.746 124.341 133.874 127.095 133.874C129.831 133.874 131.487 135.746 131.487 138.518C131.487 141.308 129.831 143.18 127.095 143.18ZM127.095 141.452C128.967 141.452 129.615 140.534 129.615 138.518C129.615 136.52 128.967 135.602 127.095 135.602C125.205 135.602 124.539 136.52 124.539 138.518C124.539 140.534 125.205 141.452 127.095 141.452ZM134.884 143H132.94V134.054H134.722V135.728H134.794C135.208 134.774 136.162 133.874 137.908 133.874C140.23 133.874 141.274 135.35 141.274 137.384V143H139.33V137.816C139.33 136.214 138.826 135.548 137.188 135.548C135.604 135.548 134.884 136.16 134.884 137.834V143ZM146.845 143.18C144.235 143.18 142.867 142.154 142.867 139.976V139.94H144.739V140.264C144.739 141.236 145.171 141.596 146.881 141.596C148.321 141.596 148.591 141.272 148.591 140.606C148.591 139.886 148.159 139.67 146.845 139.436L145.459 139.202C143.857 138.914 142.849 138.194 142.849 136.574C142.849 134.954 144.181 133.874 146.521 133.874C148.627 133.874 150.211 134.918 150.211 136.952V137.114H148.357V136.898C148.357 136.07 148.069 135.476 146.467 135.476C145.045 135.476 144.703 135.854 144.703 136.538C144.703 137.222 145.027 137.42 146.287 137.672L147.799 137.96C149.527 138.302 150.427 139.076 150.427 140.552C150.427 142.208 149.113 143.18 146.845 143.18Z" fill="white"/>
<path opacity="0.8" d="M5.18 178H3.682V174.514L0.042 168.62H1.764L3.542 171.518L4.41 172.988H4.508L5.362 171.518L7.126 168.62H8.834L5.18 174.542V178ZM11.6313 178.14C9.48927 178.14 8.15927 176.684 8.15927 174.514C8.15927 172.358 9.48927 170.902 11.6313 170.902C13.7593 170.902 15.0473 172.358 15.0473 174.514C15.0473 176.684 13.7593 178.14 11.6313 178.14ZM11.6313 176.796C13.0873 176.796 13.5913 176.082 13.5913 174.514C13.5913 172.96 13.0873 172.246 11.6313 172.246C10.1613 172.246 9.64327 172.96 9.64327 174.514C9.64327 176.082 10.1613 176.796 11.6313 176.796ZM18.7675 178.14C16.9475 178.14 16.1355 176.922 16.1355 175.34V171.042H17.6475V175.074C17.6475 176.32 18.1235 176.838 19.3275 176.838C20.4895 176.838 21.1475 176.334 21.1475 174.962V171.042H22.6595V178H21.2595V176.614H21.2035C20.8675 177.412 20.1255 178.14 18.7675 178.14ZM25.6603 178H24.1483V171H25.5343V172.106H25.6043C25.8843 171.462 26.5283 170.902 27.5503 170.902C29.0063 170.902 29.5663 171.966 29.5663 173.268V173.73H28.0543V173.45C28.0543 172.526 27.7883 172.19 26.9062 172.19C25.9963 172.19 25.6603 172.54 25.6603 173.464V178ZM37.2994 178H35.3954L32.6094 171.042H34.2894L36.3194 176.558H36.4174L38.4614 171.042H40.0994L37.2994 178ZM43.6348 178.14C41.3388 178.14 40.2608 176.684 40.2608 174.514C40.2608 172.358 41.5488 170.902 43.6208 170.902C45.4968 170.902 46.8128 172.022 46.8128 173.926C46.8128 174.29 46.7708 174.668 46.7288 174.878H41.6748C41.7308 176.152 42.1928 176.796 43.6488 176.796C44.8108 176.796 45.2588 176.404 45.2588 175.774V175.662H46.7568V175.788C46.7568 177.216 45.5108 178.14 43.6348 178.14ZM43.5928 172.176C42.2768 172.176 41.7728 172.792 41.6888 173.87H45.3708C45.4268 172.68 44.7828 172.176 43.5928 172.176ZM49.5313 178H48.0193V171H49.4053V172.106H49.4753C49.7553 171.462 50.3993 170.902 51.4213 170.902C52.8773 170.902 53.4373 171.966 53.4373 173.268V173.73H51.9253V173.45C51.9253 172.526 51.6593 172.19 50.7773 172.19C49.8673 172.19 49.5313 172.54 49.5313 173.464V178ZM55.7361 170.16H54.2381L54.2241 168.62H55.7361V170.16ZM55.7501 178H54.2381V171H55.7501V178ZM58.9598 178H57.4478V172.302H56.4258V171.042H57.4478C57.4758 169.474 58.4138 168.62 60.1778 168.62H60.7378V169.824H59.8978C59.2258 169.824 58.9178 170.076 58.9178 170.664V171.042H60.7378V172.302H58.9598V178ZM62.9498 170.16H61.4518L61.4378 168.62H62.9498V170.16ZM62.9638 178H61.4518V171H62.9638V178ZM67.3972 178.154C65.2272 178.154 63.9952 176.684 63.9952 174.528C63.9952 172.358 65.2692 170.902 67.4532 170.902C69.2872 170.902 70.5472 172.036 70.5472 173.702V173.828H69.0492V173.744C69.0492 172.722 68.5172 172.26 67.3552 172.26C66.0112 172.26 65.4932 173.016 65.4932 174.528C65.4932 176.04 66.0112 176.782 67.3552 176.782C68.5172 176.782 69.0492 176.334 69.0492 175.312V175.228H70.5472V175.354C70.5472 177.006 69.2732 178.154 67.3972 178.154ZM73.644 178.14C72.398 178.14 71.432 177.496 71.432 176.278C71.432 175.13 72.272 174.528 73.756 174.318L76.192 173.954V173.576C76.192 172.54 75.716 172.232 74.624 172.232C73.518 172.232 73.084 172.582 73.084 173.506V173.716H71.628V173.576C71.628 172.022 72.846 170.902 74.708 170.902C76.654 170.902 77.634 172.078 77.634 173.772V178H76.234V176.908H76.164C75.758 177.566 74.96 178.14 73.644 178.14ZM72.902 176.166C72.902 176.712 73.252 176.936 74.134 176.936C75.114 176.936 76.192 176.544 76.192 175.144V175.018L73.98 175.354C73.182 175.466 72.902 175.648 72.902 176.166ZM81.9118 178C80.3578 178 79.5458 177.426 79.5458 175.858V172.302H78.3838V171.042H79.5738L79.8958 169.32H81.0578V171.042H83.1578V172.302H81.0578V175.788C81.0578 176.516 81.3658 176.642 82.3038 176.642H83.1578V177.874C82.8638 177.944 82.3878 178 81.9118 178ZM85.5544 170.16H84.0564L84.0424 168.62H85.5544V170.16ZM85.5684 178H84.0564V171H85.5684V178ZM90.0805 178.14C87.9385 178.14 86.6085 176.684 86.6085 174.514C86.6085 172.358 87.9385 170.902 90.0805 170.902C92.2085 170.902 93.4965 172.358 93.4965 174.514C93.4965 176.684 92.2085 178.14 90.0805 178.14ZM90.0805 176.796C91.5365 176.796 92.0405 176.082 92.0405 174.514C92.0405 172.96 91.5365 172.246 90.0805 172.246C88.6105 172.246 88.0925 172.96 88.0925 174.514C88.0925 176.082 88.6105 176.796 90.0805 176.796ZM96.1388 178H94.6268V171.042H96.0128V172.344H96.0688C96.3908 171.602 97.1328 170.902 98.4908 170.902C100.297 170.902 101.109 172.05 101.109 173.632V178H99.5968V173.968C99.5968 172.722 99.2048 172.204 97.9308 172.204C96.6988 172.204 96.1388 172.68 96.1388 173.982V178ZM108.317 178.154C106.147 178.154 104.915 176.684 104.915 174.528C104.915 172.358 106.189 170.902 108.373 170.902C110.207 170.902 111.467 172.036 111.467 173.702V173.828H109.969V173.744C109.969 172.722 109.437 172.26 108.275 172.26C106.931 172.26 106.413 173.016 106.413 174.528C106.413 176.04 106.931 176.782 108.275 176.782C109.437 176.782 109.969 176.334 109.969 175.312V175.228H111.467V175.354C111.467 177.006 110.193 178.154 108.317 178.154ZM115.866 178.14C113.724 178.14 112.394 176.684 112.394 174.514C112.394 172.358 113.724 170.902 115.866 170.902C117.994 170.902 119.282 172.358 119.282 174.514C119.282 176.684 117.994 178.14 115.866 178.14ZM115.866 176.796C117.322 176.796 117.826 176.082 117.826 174.514C117.826 172.96 117.322 172.246 115.866 172.246C114.396 172.246 113.878 172.96 113.878 174.514C113.878 176.082 114.396 176.796 115.866 176.796ZM121.924 178H120.412V171.042H121.798V172.344H121.854C122.176 171.602 122.904 170.902 124.234 170.902C125.452 170.902 126.208 171.462 126.544 172.344H126.586C126.908 171.616 127.622 170.902 128.994 170.902C130.786 170.902 131.584 172.05 131.584 173.632V178H130.072V173.968C130.072 172.722 129.694 172.204 128.434 172.204C127.286 172.204 126.754 172.68 126.754 173.954V178H125.242V173.968C125.242 172.722 124.864 172.204 123.604 172.204C122.456 172.204 121.924 172.68 121.924 173.94V178ZM134.473 180.422H132.975V171.042H134.347V172.19H134.417C134.739 171.378 135.537 170.902 136.741 170.902C138.701 170.902 139.779 172.316 139.779 174.528C139.779 176.726 138.729 178.14 136.839 178.14C135.593 178.14 134.823 177.566 134.515 176.922H134.473V180.422ZM134.473 175.144C134.473 176.306 135.145 176.852 136.377 176.852C137.707 176.852 138.267 176.236 138.267 174.528C138.267 172.806 137.721 172.19 136.377 172.19C135.145 172.19 134.473 172.736 134.473 173.898V175.144ZM142.5 178H140.988V168.62H142.5V178ZM147.022 178.14C144.726 178.14 143.648 176.684 143.648 174.514C143.648 172.358 144.936 170.902 147.008 170.902C148.884 170.902 150.2 172.022 150.2 173.926C150.2 174.29 150.158 174.668 150.116 174.878H145.062C145.118 176.152 145.58 176.796 147.036 176.796C148.198 176.796 148.646 176.404 148.646 175.774V175.662H150.144V175.788C150.144 177.216 148.898 178.14 147.022 178.14ZM146.98 172.176C145.664 172.176 145.16 172.792 145.076 173.87H148.758C148.814 172.68 148.17 172.176 146.98 172.176ZM154.25 178C152.696 178 151.884 177.426 151.884 175.858V172.302H150.722V171.042H151.912L152.234 169.32H153.396V171.042H155.496V172.302H153.396V175.788C153.396 176.516 153.704 176.642 154.642 176.642H155.496V177.874C155.202 177.944 154.726 178 154.25 178ZM159.367 178.14C157.071 178.14 155.993 176.684 155.993 174.514C155.993 172.358 157.281 170.902 159.353 170.902C161.229 170.902 162.545 172.022 162.545 173.926C162.545 174.29 162.503 174.668 162.461 174.878H157.407C157.463 176.152 157.925 176.796 159.381 176.796C160.543 176.796 160.991 176.404 160.991 175.774V175.662H162.489V175.788C162.489 177.216 161.243 178.14 159.367 178.14ZM159.325 172.176C158.009 172.176 157.505 172.792 157.421 173.87H161.103C161.159 172.68 160.515 172.176 159.325 172.176ZM166.606 178.14C164.618 178.14 163.54 176.726 163.54 174.514C163.54 172.316 164.604 170.902 166.522 170.902C167.754 170.902 168.496 171.49 168.804 172.12H168.846V168.62H170.344V178H168.958V176.852H168.902C168.566 177.65 167.796 178.14 166.606 178.14ZM165.052 174.514C165.052 176.236 165.598 176.852 166.942 176.852C168.174 176.852 168.846 176.306 168.846 175.144V173.898C168.846 172.736 168.174 172.19 166.942 172.19C165.612 172.19 165.052 172.806 165.052 174.514ZM173.442 178H171.524V175.83H173.442V178Z" fill="white"/>
</svg>
