<svg width="32" height="32" viewBox="0 0 32 32" fill="none" xmlns="http://www.w3.org/2000/svg">
<g clip-path="url(#clip0_26_1418)">
<rect width="32" height="32" rx="8" fill="#006341"/>
<path fill-rule="evenodd" clip-rule="evenodd" d="M16.5951 4.6076C16.2613 4.29153 15.7387 4.29153 15.4049 4.6076C13.0779 6.81141 9.93797 8.16179 6.48077 8.16179C6.42577 8.16179 6.37084 8.16145 6.31601 8.16077C5.93828 8.15608 5.60116 8.39694 5.48317 8.7558C5.00716 10.2036 4.75 11.7497 4.75 13.3541C4.75 20.2103 9.4393 25.9691 15.7843 27.6021C15.9258 27.6386 16.0742 27.6386 16.2157 27.6021C22.5607 25.9691 27.25 20.2103 27.25 13.3541C27.25 11.7497 26.9928 10.2036 26.5168 8.7558C26.3988 8.39694 26.0617 8.15608 25.684 8.16077C25.6292 8.16145 25.5742 8.16179 25.5192 8.16179C22.062 8.16179 18.9221 6.81141 16.5951 4.6076Z" fill="white"/>
<path fill-rule="evenodd" clip-rule="evenodd" d="M15.3819 15.5368C14.257 15.2599 13.4227 14.2444 13.4227 13.0341C13.4227 11.6107 14.5765 10.4568 15.9999 10.4568C17.4233 10.4568 18.5772 11.6107 18.5772 13.0341C18.5772 14.2444 17.7429 15.2599 16.618 15.5368L17.4318 21.5432H14.5681L15.3819 15.5368ZM17.8267 16.2311C18.9347 15.5968 19.6818 14.4035 19.6818 13.0341C19.6818 11.0007 18.0333 9.35228 15.9999 9.35228C13.9665 9.35228 12.3181 11.0007 12.3181 13.0341C12.3181 14.4035 13.0651 15.5968 14.1732 16.2311L13.3038 22.6477H18.696L17.8267 16.2311Z" fill="#006341"/>
<path fill-rule="evenodd" clip-rule="evenodd" d="M15.382 15.5368C14.2571 15.2599 13.4227 14.2444 13.4227 13.0341C13.4227 11.6107 14.5766 10.4568 16 10.4568C17.4234 10.4568 18.5773 11.6107 18.5773 13.0341C18.5773 14.2444 17.743 15.2599 16.6181 15.5368L17.4318 21.5432H14.5682L15.382 15.5368ZM17.3828 16.001C18.4989 15.4799 19.2727 14.348 19.2727 13.0341C19.2727 11.2266 17.8075 9.76137 16 9.76137C14.1925 9.76137 12.7273 11.2266 12.7273 13.0341C12.7273 14.348 13.5011 15.4799 14.6173 16.001L13.7722 22.2386H18.2279L17.3828 16.001Z" fill="white"/>
<path d="M16.6182 15.5368C17.7431 15.2599 18.5774 14.2444 18.5774 13.0341C18.5774 11.6107 17.4235 10.4568 16.0001 10.4568C14.5767 10.4568 13.4229 11.6107 13.4229 13.0341C13.4229 14.2444 14.2572 15.2599 15.3821 15.5368L14.5683 21.5432H17.4319L16.6182 15.5368Z" fill="#006341"/>
<path d="M15.8366 6.16485C15.8366 6.1178 15.8572 6.07313 15.8927 6.04231C15.9543 5.98893 16.046 5.98906 16.1075 6.04244C16.1432 6.07333 16.1639 6.11817 16.1639 6.16532V8.49598C16.1639 8.58549 16.0895 8.65683 16 8.65683C15.9107 8.65683 15.8366 8.58564 15.8366 8.49633V6.16485Z" fill="#006341"/>
<path d="M14.027 9.12568C14.095 9.09126 14.1313 9.01423 14.1115 8.94056L13.8026 7.78773C13.775 7.68458 13.6568 7.63608 13.5639 7.68878C13.4994 7.72537 13.4673 7.80081 13.4865 7.87242L13.7954 9.0252C13.822 9.12459 13.9351 9.17213 14.027 9.12568Z" fill="#006341"/>
<path d="M12.5937 10.2849C12.6353 10.2333 12.642 10.1615 12.6089 10.1041L11.791 8.68757C11.7511 8.61831 11.6666 8.58874 11.5918 8.61718C11.4979 8.65293 11.4574 8.76419 11.5076 8.85121L12.3254 10.2676C12.3823 10.3661 12.5222 10.3733 12.5937 10.2849Z" fill="#006341"/>
<path d="M11.7815 11.8619C11.7968 11.8068 11.7819 11.7478 11.7415 11.7074L9.36947 9.33536C9.33145 9.29734 9.27709 9.28086 9.2243 9.29107C9.0961 9.31585 9.04574 9.47447 9.13807 9.5668L11.5099 11.9386C11.5974 12.0261 11.7484 11.9811 11.7815 11.8619Z" fill="#006341"/>
<path d="M11.649 13.5159C11.6435 13.4662 11.6152 13.4211 11.5718 13.396L6.6553 10.5575C6.55829 10.5015 6.43484 10.5556 6.41235 10.6653C6.39812 10.7348 6.43028 10.8055 6.49166 10.8409L11.4078 13.6793C11.5218 13.7451 11.6633 13.6468 11.649 13.5159Z" fill="#006341"/>
<path d="M12.057 14.9371C12.0373 14.8964 12.0012 14.8657 11.9575 14.854L6.34883 13.3511C6.24383 13.323 6.14061 13.402 6.14186 13.5107C6.14271 13.5845 6.19287 13.6482 6.26412 13.6673L11.8723 15.17C12.0044 15.2054 12.1166 15.0603 12.057 14.9371Z" fill="#006341"/>
<path d="M12.7533 15.9697C12.7239 15.9372 12.6823 15.9182 12.6385 15.9182H6.58873C6.48445 15.9182 6.40605 16.0135 6.42756 16.1155C6.44359 16.1916 6.51097 16.2455 6.58872 16.2455H12.6379C12.7762 16.2455 12.8461 16.0722 12.7533 15.9697Z" fill="#006341"/>
<path d="M13.3907 16.8274C13.4064 16.7116 13.2991 16.6171 13.1862 16.6474L7.2626 18.2346C7.16677 18.2603 7.11478 18.364 7.1528 18.4556C7.18439 18.5318 7.26767 18.5721 7.3473 18.5507L13.2709 16.9635C13.3346 16.9464 13.3818 16.8928 13.3907 16.8274Z" fill="#006341"/>
<path d="M13.2669 17.7409C13.2852 17.6062 13.1407 17.5092 13.023 17.5772L8.29765 20.3054C8.21652 20.3522 8.19028 20.4571 8.24085 20.5359C8.28822 20.6098 8.38531 20.6327 8.46129 20.5888L13.1866 17.8606C13.2305 17.8353 13.2601 17.7911 13.2669 17.7409Z" fill="#006341"/>
<path d="M13.0772 19.141C13.0983 18.9858 12.9102 18.8925 12.7994 19.0033L9.6605 22.1422C9.59825 22.2045 9.59549 22.3046 9.6551 22.3694C9.7183 22.4381 9.8259 22.4396 9.89192 22.3736L13.0308 19.2347C13.0561 19.2094 13.0724 19.1765 13.0772 19.141Z" fill="#006341"/>
<path d="M12.6795 22.0763C12.7036 21.8986 12.4654 21.8172 12.3757 21.9725L11.3534 23.7431C11.3121 23.8147 11.3298 23.9059 11.3955 23.956C11.4742 24.016 11.5874 23.9925 11.6369 23.9068L12.6591 22.1362C12.6697 22.1178 12.6767 22.0974 12.6795 22.0763Z" fill="#006341"/>
<path d="M13.9917 23.3432C13.9176 23.3432 13.8528 23.3929 13.8336 23.4645L13.4025 25.0735C13.3823 25.1488 13.4172 25.2281 13.4869 25.2631C13.5798 25.3098 13.6917 25.2587 13.7186 25.1582L14.1497 23.5492C14.1776 23.4452 14.0993 23.3432 13.9917 23.3432Z" fill="#006341"/>
<path d="M16.0002 23.3432C15.9099 23.3432 15.8366 23.4164 15.8366 23.5068V26.0506C15.8366 26.1246 15.8857 26.1897 15.9572 26.2091C15.9852 26.2168 16.0149 26.2168 16.0429 26.2091C16.1145 26.1897 16.1639 26.1244 16.1639 26.0502V23.5068C16.1639 23.4164 16.0906 23.3432 16.0002 23.3432Z" fill="#006341"/>
<path d="M17.8451 23.3432C17.7376 23.3432 17.6592 23.4452 17.6871 23.5492L18.1373 25.2296C18.1641 25.3293 18.2745 25.3806 18.3673 25.3354C18.438 25.3009 18.4738 25.2209 18.4535 25.1449L18.0032 23.4645C17.984 23.3929 17.9192 23.3432 17.8451 23.3432Z" fill="#006341"/>
<path d="M19.3706 22.4458C19.3735 22.4669 19.3804 22.4873 19.391 22.5057L20.2495 23.9925C20.2986 24.0776 20.4106 24.1015 20.4894 24.0428C20.5562 23.993 20.5746 23.901 20.5329 23.8289L19.6745 22.3421C19.5848 22.1867 19.3465 22.2681 19.3706 22.4458Z" fill="#006341"/>
<path d="M18.9484 19.3299C18.9532 19.3654 18.9696 19.3983 18.9949 19.4236L22.0296 22.4583C22.0952 22.5239 22.202 22.5229 22.2655 22.4552C22.326 22.3905 22.3237 22.2895 22.261 22.2269L19.2263 19.1922C19.1155 19.0814 18.9274 19.1746 18.9484 19.3299Z" fill="#006341"/>
<path d="M18.747 17.8432C18.7538 17.8934 18.7835 17.9376 18.8274 17.9629L23.4945 20.6575C23.5701 20.7011 23.6667 20.6787 23.7143 20.6054C23.7656 20.5266 23.7396 20.4211 23.6581 20.374L18.991 17.6795C18.8732 17.6115 18.7288 17.7084 18.747 17.8432Z" fill="#006341"/>
<path d="M18.6155 16.8728C18.6244 16.9382 18.6716 16.9918 18.7354 17.0089L24.6364 18.5901C24.7158 18.6114 24.7989 18.5713 24.8307 18.4955C24.8691 18.4037 24.8171 18.2997 24.7211 18.274L18.8201 16.6928C18.7072 16.6625 18.5999 16.757 18.6155 16.8728Z" fill="#006341"/>
<path d="M19.2468 15.9697C19.154 16.0722 19.2239 16.2455 19.3622 16.2455H25.4114C25.4891 16.2455 25.5565 16.1916 25.5725 16.1155C25.594 16.0135 25.5156 15.9182 25.4114 15.9182H19.3616C19.3178 15.9182 19.2762 15.9372 19.2468 15.9697Z" fill="#006341"/>
<path d="M19.9661 14.8888C19.9084 15.012 20.0204 15.155 20.1518 15.1198L25.7364 13.6234C25.8078 13.6043 25.8581 13.5402 25.8587 13.4663C25.8596 13.3578 25.7565 13.2792 25.6517 13.3073L20.0666 14.8038C20.0222 14.8157 19.9856 14.8472 19.9661 14.8888Z" fill="#006341"/>
<path d="M20.3606 13.4197C20.3493 13.5494 20.4894 13.6443 20.6022 13.5793L25.4909 10.7567C25.5526 10.7211 25.5848 10.6499 25.57 10.5801C25.5469 10.471 25.4239 10.4175 25.3273 10.4733L20.4382 13.296C20.3937 13.3217 20.365 13.3685 20.3606 13.4197Z" fill="#006341"/>
<path d="M20.183 11.7403C20.2189 11.8567 20.3672 11.8983 20.4533 11.8122L22.7258 9.53979C22.8176 9.44795 22.7684 9.29023 22.6411 9.26435C22.5878 9.25353 22.5328 9.26993 22.4944 9.30835L20.2217 11.581C20.18 11.6227 20.1656 11.684 20.183 11.7403Z" fill="#006341"/>
<path d="M19.3134 10.1736C19.3863 10.2579 19.5224 10.2486 19.5782 10.152L20.359 8.79964C20.4089 8.71319 20.3692 8.60263 20.2763 8.5662C20.2013 8.53679 20.1158 8.5662 20.0755 8.636L19.2947 9.98849C19.2605 10.0476 19.2688 10.1219 19.3134 10.1736Z" fill="#006341"/>
<path d="M17.8339 9.05835C17.9252 9.10052 18.0341 9.05237 18.0602 8.95525L18.3721 7.79108C18.3911 7.72012 18.3598 7.64533 18.2963 7.60836C18.2034 7.55424 18.0838 7.6025 18.056 7.70638L17.744 8.8706C17.7237 8.94642 17.7627 9.02543 17.8339 9.05835Z" fill="#006341"/>
</g>
<defs>
<clipPath id="clip0_26_1418">
<rect width="32" height="32" fill="white"/>
</clipPath>
</defs>
</svg>
